# xmcd CD database file
#
# Track frame offsets:
#	150
#	20857
#	43745
#	64254
#	84660
#	97931
#	115347
#	127987
#	143840
#	162544
#	177257
#	195077
#	211816
#	230634
#	251269
#	271091
#	290245
#	309166
#	327722
#
# Disc length: 4669 seconds
#
# Revision: 0
# Processed by: cddbd v1.5.2PL0 Copyright (c) Steve Scherf et al.
# Submitted via: CDex 1.70beta2
#
DISCID=14123b13
DTITLE=Jimmy Raney - Four Classic Albums Plus - Avid Jazz - D1
DYEAR=1954
DGENRE=Jazz
TTITLE0=Minor (A LP)
TTITLE1=Some Other Spring (A LP)
TTITLE2=Double Image (A LP)
TTITLE3=On the Square (A LP)
TTITLE4=Spring is Here (A LP)
TTITLE5=One More For the Mode (A LP)
TTITLE6=What’s New (A LP)
TTITLE7=Tomorrow Fairly Cloudy (A LP)
TTITLE8=A Foggy Day (A LP)
TTITLE9=Someone to Watch Over Me (A LP)
TTITLE10=Cross Your Heart (A LP)
TTITLE11=You Don’t Know What Love Is (A LP)
TTITLE12=Isn’t It Romantic (Jimmy Raney featuring Bob Brookmeyer LP)
TTITLE13=How Long Has This Been Going On (Jimmy Raney featuring Bob Brookmeyer LP)
TTITLE14=No Male For Me (Jimmy Raney featuring Bob Brookmeyer LP)
TTITLE15=The Flag is Up (Jimmy Raney featuring Bob Brookmeyer LP)
TTITLE16=Get Off that Roof (Jimmy Raney featuring Bob Brookmeyer LP)
TTITLE17=Jim’s Tune (Jimmy Raney featuring Bob Brookmeyer LP)
TTITLE18=No One But Me (Jimmy Raney featuring Bob Brookmeyer LP)
EXTD=YEAR: 1954
EXTT0=
EXTT1=
EXTT2=
EXTT3=
EXTT4=
EXTT5=
EXTT6=
EXTT7=
EXTT8=
EXTT9=
EXTT10=
EXTT11=
EXTT12=
EXTT13=
EXTT14=
EXTT15=
EXTT16=
EXTT17=
EXTT18=
PLAYORDER=
